<svg width="273" height="273" viewBox="0 0 273 273" fill="none" xmlns="http://www.w3.org/2000/svg">
<path d="M181.574 239.45L176.189 244.533C176.049 244.665 175.937 244.825 175.861 245.002C175.784 245.179 175.745 245.37 175.745 245.563V253.66C175.744 254.012 175.876 254.351 176.113 254.612C176.349 254.873 176.675 255.036 177.026 255.069L187.624 256.099L193.467 250.583C193.608 250.451 193.721 250.292 193.798 250.114C193.874 249.937 193.914 249.746 193.914 249.553V241.407C193.914 241.054 193.782 240.713 193.544 240.452C193.307 240.191 192.979 240.028 192.628 239.995L182.678 239.071C182.477 239.053 182.275 239.077 182.085 239.142C181.895 239.208 181.721 239.313 181.574 239.45Z" fill="#5285EA"/>
<path d="M181.009 238.039L174.69 244.004C174.525 244.16 174.394 244.347 174.304 244.555C174.215 244.763 174.169 244.988 174.169 245.214V254.715C174.169 255.128 174.322 255.526 174.6 255.832C174.878 256.138 175.259 256.329 175.671 256.369L188.109 257.579L194.968 251.104C195.133 250.948 195.264 250.76 195.353 250.552C195.443 250.344 195.489 250.12 195.489 249.894V240.333C195.489 239.919 195.333 239.52 195.054 239.214C194.775 238.908 194.392 238.717 193.979 238.679L182.304 237.589C182.069 237.567 181.831 237.596 181.608 237.674C181.385 237.751 181.181 237.876 181.009 238.039Z" fill="#5285EA"/>
<path d="M214.206 185.256V193.399C214.205 193.592 214.166 193.782 214.09 193.96C214.013 194.137 213.902 194.296 213.762 194.429L207.913 199.945L197.309 198.915C197.003 198.887 196.714 198.757 196.492 198.544C198.244 198.331 199.718 197.517 200.171 196.636C200.866 195.274 200.68 192.897 197.718 192.483C197.145 192.406 196.577 192.29 196.02 192.134V189.406C196.02 189.214 196.059 189.023 196.135 188.846C196.212 188.67 196.324 188.51 196.464 188.379L201.847 183.291C201.993 183.157 202.165 183.054 202.353 182.989C202.54 182.924 202.739 182.899 202.937 182.915L212.887 183.841C213.245 183.865 213.581 184.025 213.826 184.288C214.071 184.551 214.207 184.896 214.206 185.256Z" fill="#5285EA"/>
<path d="M215.784 184.182V193.74C215.784 193.967 215.737 194.193 215.646 194.402C215.556 194.611 215.424 194.799 215.258 194.955L208.404 201.425L195.966 200.218C195.555 200.177 195.173 199.986 194.895 199.679C194.617 199.373 194.464 198.974 194.464 198.561V198.522C195.141 198.63 195.83 198.638 196.508 198.544C198.261 198.332 199.735 197.517 200.187 196.637C200.882 195.274 200.697 192.897 197.735 192.483C197.161 192.407 196.594 192.29 196.037 192.134C194.707 191.728 194.625 191.284 194.625 191.284L194.462 191.388V189.071C194.46 188.845 194.505 188.621 194.594 188.413C194.683 188.205 194.814 188.018 194.98 187.864L201.302 181.896C201.474 181.733 201.678 181.61 201.901 181.532C202.124 181.455 202.361 181.425 202.597 181.446L214.272 182.536C214.683 182.575 215.064 182.765 215.344 183.069C215.623 183.373 215.78 183.769 215.784 184.182Z" fill="#5285EA"/>
<path d="M216.176 209.927L209.813 215.923C209.647 216.079 209.514 216.268 209.424 216.478C209.334 216.687 209.287 216.913 209.287 217.141V226.709C209.286 227.126 209.441 227.528 209.72 227.836C210 228.144 210.385 228.337 210.799 228.377L223.335 229.595L230.244 223.077C230.41 222.92 230.542 222.731 230.633 222.522C230.723 222.312 230.77 222.087 230.77 221.858V212.238C230.77 211.821 230.615 211.418 230.333 211.109C230.052 210.801 229.665 210.608 229.249 210.57L217.492 209.48C217.254 209.456 217.013 209.484 216.786 209.561C216.558 209.638 216.351 209.763 216.176 209.927Z" fill="#5285EA"/>
<path d="M215.508 208.259L208.039 215.309C207.844 215.493 207.689 215.714 207.584 215.96C207.478 216.206 207.423 216.47 207.423 216.737V227.966C207.423 228.454 207.605 228.925 207.934 229.287C208.262 229.648 208.713 229.875 209.199 229.922L223.9 231.35L232.005 223.698C232.2 223.515 232.355 223.293 232.461 223.048C232.567 222.802 232.621 222.537 232.62 222.27V210.971C232.617 210.482 232.432 210.013 232.101 209.653C231.77 209.294 231.317 209.071 230.83 209.028L217.032 207.744C216.756 207.718 216.478 207.751 216.215 207.839C215.953 207.928 215.712 208.071 215.508 208.259Z" fill="#5285EA"/>
<path d="M233.427 215.77L226.805 222.022C226.633 222.185 226.496 222.382 226.402 222.6C226.308 222.817 226.26 223.052 226.26 223.289V233.245C226.26 233.678 226.421 234.096 226.712 234.417C227.003 234.738 227.404 234.939 227.835 234.981L240.87 236.248L248.057 229.468C248.229 229.305 248.366 229.108 248.46 228.89C248.554 228.672 248.602 228.438 248.602 228.2V218.174C248.601 217.74 248.438 217.321 248.145 217C247.853 216.679 247.451 216.479 247.018 216.438L234.784 215.296C234.538 215.274 234.289 215.304 234.055 215.386C233.82 215.468 233.607 215.599 233.427 215.77Z" fill="#5285EA"/>
<path d="M232.737 214.034L224.965 221.371C224.763 221.562 224.601 221.793 224.491 222.049C224.381 222.304 224.324 222.58 224.325 222.859V234.545C224.324 235.052 224.513 235.542 224.854 235.918C225.195 236.293 225.664 236.529 226.17 236.578L241.458 238.066L249.907 230.102C250.109 229.911 250.27 229.68 250.38 229.424C250.49 229.168 250.547 228.893 250.547 228.614V216.855C250.547 216.346 250.356 215.854 250.013 215.478C249.67 215.101 249.198 214.867 248.691 214.819L234.332 213.484C234.042 213.457 233.75 213.492 233.475 213.587C233.2 213.682 232.949 213.834 232.737 214.034Z" fill="#5285EA"/>
<path d="M214.301 222.995L205.016 231.759C204.774 231.987 204.581 232.263 204.449 232.569C204.317 232.874 204.25 233.203 204.25 233.536V247.495C204.253 248.101 204.479 248.685 204.886 249.133C205.293 249.582 205.852 249.865 206.455 249.926L224.731 251.703L234.814 242.189C235.056 241.96 235.248 241.685 235.38 241.379C235.511 241.074 235.58 240.745 235.58 240.412V226.366C235.577 225.758 235.349 225.172 234.939 224.723C234.529 224.274 233.967 223.993 233.362 223.935L216.209 222.338C215.862 222.306 215.513 222.348 215.184 222.461C214.855 222.574 214.554 222.756 214.301 222.995Z" fill="#5285EA"/>
<path d="M213.329 220.561L202.428 230.847C202.144 231.115 201.917 231.438 201.763 231.796C201.608 232.155 201.528 232.541 201.528 232.931V249.313C201.528 250.025 201.792 250.712 202.271 251.24C202.75 251.768 203.408 252.098 204.117 252.166L225.562 254.251L237.39 243.078C237.674 242.81 237.9 242.486 238.055 242.128C238.21 241.769 238.289 241.383 238.289 240.993V224.518C238.29 223.804 238.023 223.116 237.542 222.588C237.061 222.06 236.401 221.731 235.69 221.665L215.569 219.793C215.162 219.754 214.752 219.802 214.365 219.935C213.979 220.067 213.626 220.281 213.329 220.561Z" fill="#5285EA"/>
<path d="M148.8 102.876C156.43 97.0876 167.988 91.8905 183.451 94.5858" stroke="#CCDDE2" stroke-width="1.2509" stroke-miterlimit="10"/>
<path d="M152.675 107.4C159.466 102.683 168.716 99.061 180.778 99.8377" stroke="white" stroke-width="1.2509" stroke-linecap="round" stroke-linejoin="round"/>
<path d="M205.976 104.958C213.432 111.845 217.351 121.553 218.785 131.445C219.735 138.025 219.743 144.706 218.809 151.288C218.738 151.674 218.69 152.065 218.665 152.457C219.147 152.24 219.647 152.062 220.158 151.926C226.323 150.342 232.88 150.086 238.846 152.523C243.808 154.547 248.032 158.098 251.259 162.334C255.573 168.031 258.182 174.835 258.784 181.955C259.874 195.582 253.358 206.57 243.585 214.321L243.473 214.411" stroke="#CCDDE2" stroke-width="1.2509" stroke-linejoin="round"/>
<path d="M204.785 111.515C214.449 122.871 215.062 138.141 214.209 152.694C214.19 153.013 214.07 153.858 213.958 154.716" stroke="white" stroke-width="1.2509" stroke-linecap="round" stroke-linejoin="round"/>
<path d="M217.894 156.359C225.023 155.651 232.937 155.441 239.001 158.984C244.996 162.489 249.46 168.154 252.03 174.57C254.949 181.852 255.418 190.376 252.156 197.631C248.496 205.752 242.435 211.565 235.575 217.008C235.556 217.021 236.393 217.206 237.265 217.403" stroke="white" stroke-width="1.2509" stroke-linecap="round" stroke-linejoin="round"/>
<path d="M93.8309 240.075C92.3045 240.624 90.7061 240.948 89.0862 241.037C66.0768 242.451 44.4845 229.863 29.2775 215.771C28.5826 215.127 27.9149 214.468 27.2717 213.8" stroke="black" stroke-width="1.2509" stroke-miterlimit="10"/>
<path d="M115.966 231.034C117.296 233.068 120.416 232.255 120.416 232.255C137.82 228.685 132.742 205.643 118.02 194.949" stroke="black" stroke-width="1.2509" stroke-miterlimit="10"/>
<path d="M136.236 176.052C129.927 182.102 124.294 185.773 119.015 187.948L121.195 172.706C97.4172 158.485 91.0891 174.341 91.0891 174.341C90.1789 175.829 89.7565 193.483 89.6366 199.509C89.6066 199.509 88.8517 199.509 88.819 199.509C73.83 198.707 60.2827 184.997 60.2827 184.997C67.8562 165.98 94.8936 142.482 94.8936 142.482C113.66 129.322 127.984 133.748 127.984 133.748C123.572 134.067 129.584 146.284 129.584 146.284C138.443 153.978 141.714 142.488 141.714 142.488C150.287 163.009 136.236 176.052 136.236 176.052Z" fill="#353642"/>
<path d="M151.74 167.176C151.74 167.176 150.184 187.169 136.659 186.507C136.659 186.507 131.587 181.021 131.715 176.848C131.843 172.676 143.161 146.62 143.161 146.62C143.161 146.62 150.497 164.917 151.74 167.176Z" fill="#353642"/>
<path d="M28.5142 214.977V215.045L29.6697 216.135C29.6697 216.135 29.1901 216.58 28.5142 217.226C27.6339 218.043 26.4212 219.171 25.5164 220.033C23.9494 221.521 15.9371 229.53 13.7977 222.245C14.2201 219.697 15.839 214.457 22.0444 208.09C30.8688 199.021 29.6397 200.146 31.8554 200.296C32.8774 200.362 34.2018 200.961 35.3355 201.591C32.4686 202.784 28.1218 206.096 28.5142 214.977Z" fill="#5285EA"/>
<path d="M37.7311 203.098C37.7311 203.098 29.0565 203.915 28.5142 214.977V215.045C28.4788 215.727 28.4788 216.443 28.5142 217.207C27.6339 218.024 26.4212 219.152 25.5164 220.014C23.9494 221.502 15.9371 229.511 13.7977 222.226C14.2201 219.678 15.839 214.438 22.0444 208.071C30.8688 199.002 29.6397 200.127 31.8554 200.277C32.8774 200.343 34.2018 200.942 35.3355 201.572C36.1597 202.039 36.9593 202.548 37.7311 203.098Z" fill="#5285EA"/>
<path d="M118.958 188.409C128.769 182.258 144.51 174.382 144.472 156.7C144.472 152.5 144.039 149.069 143.109 145.821L143.019 145.51C142.695 144.458 142.257 143.445 141.714 142.488" stroke="black" stroke-width="1.2509" stroke-miterlimit="10"/>
<path d="M71.6336 219.016C69.3635 217.084 67.3141 215.22 65.9515 213.934L65.9296 213.912C64.8559 212.912 64.2127 212.277 64.2127 212.277C63.2998 211.031 62.4876 209.824 61.76 208.663C61.7458 208.646 61.7355 208.625 61.73 208.603C56.4375 200.046 56.1187 193.227 61.0487 183.195C61.0773 183.123 61.11 183.052 61.1468 182.983C61.6919 181.893 62.2941 180.754 62.9591 179.576C72.8273 162.134 101.781 129.636 126.758 133.745" stroke="black" stroke-width="1.2509" stroke-miterlimit="10"/>
<path d="M29.286 215.762C24.1081 222.188 20.4753 224.469 18.0198 224.974C15.5643 225.478 13.3024 223.3 13.6594 220.782C14.7985 212.824 24.059 203.305 28.6156 199.048C29.3135 198.392 30.2093 197.985 31.1626 197.891C32.1162 197.797 33.0741 198.022 33.8862 198.53L36.1673 199.95C42.9069 204.153 49.9408 208.251 57.0129 212.029C63.4963 215.495 70.6201 219.951 78.2945 218.943" stroke="black" stroke-width="1.2509" stroke-miterlimit="10"/>
<path d="M122.163 156.082C122.251 159.245 122.17 162.411 121.92 165.565C121.056 176.982 118.723 188.242 117.44 199.612C116.622 206.889 116.121 214.198 116.023 221.521C115.941 227.669 115.925 232.359 116.107 238.507C116.224 242.464 118.462 244.991 121.868 246.683C124.738 248.106 126.739 247.817 128.526 250.686C132.203 256.6 124.983 257.02 122.046 256.241C113.804 254.06 101.68 252.864 96.9731 244.669C93.2204 238.128 92.7435 233.853 91.7951 226.543C90.7595 218.624 89.8874 210.671 89.7021 202.681C89.416 189.815 90.4134 169.119 95.0246 156.951" stroke="black" stroke-width="1.2509" stroke-miterlimit="10"/>
<path d="M225.107 217.103L225.063 217.147L224.042 217.043L224.08 217.008L225.107 217.103Z" fill="#5285EA"/>
<path d="M208.895 215.71L217.292 216.542L208.895 215.779V215.71Z" fill="#5285EA"/>
<path d="M225.107 217.103L225.064 217.146L224.042 217.043L223.93 217.146L223.442 217.103L223.554 216.999L223.589 216.961L224.08 217.007L225.107 217.103Z" fill="#5285EA"/>
<path d="M225.107 217.103L225.064 217.146L224.042 217.043L223.554 216.999L223.589 216.961L224.08 217.007L225.107 217.103Z" fill="#5285EA"/>
<path d="M203.667 231.683L216.08 232.896L203.667 231.781V231.683Z" fill="#5285EA"/>
<path d="M227.644 233.722L227.579 233.787L226.066 233.635L225.903 233.787L225.181 233.722L225.344 233.569L225.399 233.515L226.123 233.58L227.644 233.722Z" fill="#5285EA"/>
<path d="M227.645 233.722L227.579 233.787L226.067 233.635L225.344 233.569L225.399 233.515L226.124 233.58L227.645 233.722Z" fill="#5285EA"/>
<path d="M143.014 145.508C143.014 145.508 151.031 172.254 160.409 178.484C169.244 184.351 181.108 181.806 190.425 178.601C192.998 177.715 195.584 176.851 198.329 176.892C202.19 176.947 210.061 177.802 211.083 182.296" stroke="black" stroke-width="1.2509" stroke-miterlimit="10"/>
<path d="M132.476 179.445C146.312 207.464 170.845 201.874 183.474 196.811C184.618 196.345 185.859 196.168 187.087 196.293C188.308 196.426 189.268 196.944 190.404 197.383C192.336 198.146 194.519 198.694 196.615 198.552C198.711 198.41 201.264 196.813 200.381 194.342C199.678 192.371 197.487 192.513 195.808 192.134C194.13 191.755 193.726 189.308 195.296 188.515C195.315 188.509 195.333 188.499 195.348 188.485" stroke="black" stroke-width="1.2509" stroke-miterlimit="10"/>
<path d="M195.489 238.823L188.109 245.797L174.169 244.5L181.557 237.529L195.489 238.823Z" stroke="black" stroke-width="1.2509" stroke-linecap="square" stroke-linejoin="round"/>
<path d="M188.109 245.797V257.581L174.169 256.227V244.5L188.109 245.797Z" stroke="black" stroke-width="1.2509" stroke-linecap="square" stroke-linejoin="round"/>
<path d="M195.488 238.823V250.615L188.108 257.581V245.797L195.488 238.823Z" stroke="black" stroke-width="1.2509" stroke-linecap="square" stroke-linejoin="round"/>
<path d="M238.403 222.019L225.774 233.953L201.928 231.732L207.51 226.461V229.434L223.929 231.034L232.62 222.826V221.477L238.403 222.019Z" stroke="black" stroke-width="1.2509" stroke-linecap="square" stroke-linejoin="round"/>
<path d="M225.774 233.951V254.109L201.928 251.793V231.735L225.774 233.951Z" stroke="black" stroke-width="1.2509" stroke-linecap="square" stroke-linejoin="round"/>
<path d="M238.401 222.022V242.194L225.775 254.109V233.95L238.401 222.022Z" stroke="black" stroke-width="1.2509" stroke-linecap="square" stroke-linejoin="round"/>
<path d="M232.621 208.938L223.93 217.147L207.51 215.623L216.209 207.412L232.621 208.938Z" stroke="black" stroke-width="1.2509" stroke-linecap="square" stroke-linejoin="round"/>
<path d="M223.93 220.161V217.146L207.51 215.623V228.296" stroke="black" stroke-width="1.2509" stroke-linecap="square" stroke-linejoin="round"/>
<path d="M232.621 208.938V222.826L223.93 231.034V217.146L232.621 208.938Z" stroke="black" stroke-width="1.2509" stroke-linecap="square" stroke-linejoin="round"/>
<path d="M232.863 213.828L233.237 213.476L250.58 215.089L241.393 223.775L238.818 223.532" stroke="black" stroke-width="1.2509" stroke-linecap="square" stroke-linejoin="round"/>
<path d="M238.665 223.516L241.393 223.775V238.439L238.403 238.15" stroke="black" stroke-width="1.2509" stroke-linecap="square" stroke-linejoin="round"/>
<path d="M250.577 215.089V229.768L241.391 238.439V223.769L250.577 215.089Z" stroke="black" stroke-width="1.2509" stroke-linecap="square" stroke-linejoin="round"/>
<path d="M215.782 182.729L208.402 189.703L194.462 188.406L201.85 181.432L215.782 182.729Z" stroke="black" stroke-width="1.2509" stroke-linecap="square" stroke-linejoin="round"/>
<path d="M194.458 198.484V200.136L208.398 201.49V189.706L195.347 188.49L194.458 188.409V189.431V190.491" stroke="black" stroke-width="1.2509" stroke-linecap="square" stroke-linejoin="round"/>
<path d="M215.781 182.729V194.521L208.401 201.487V189.703L215.781 182.729Z" stroke="black" stroke-width="1.2509" stroke-linecap="square" stroke-linejoin="round"/>
<path d="M144.472 132.2C145.739 133.898 147.963 134.236 149.438 133.067" stroke="black" stroke-width="1.2509" stroke-miterlimit="10"/>
<path d="M164.62 115.279C164.074 116.638 163.114 117.79 161.877 118.573C160.639 119.355 159.186 119.728 157.725 119.639C157.693 119.042 157.516 118.461 157.21 117.947C155.899 115.81 154.667 119.258 149.92 115.925C143.344 111.292 140.332 112.927 140.332 112.927C140.06 113.069 139.844 114.709 139.771 114.996C139.321 116.658 138.874 118.312 138.408 119.972C138.136 120.986 137.863 121.991 137.591 122.997C137.521 122.811 137.44 122.629 137.348 122.452C137.048 120.056 136.31 117.173 133.628 117.958C133.085 118.127 132.589 118.422 132.181 118.819C130.194 120.743 131.132 123.035 132.625 124.853C132.985 125.402 133.404 125.91 133.873 126.368C133.5 126.913 131.979 129.093 131.979 129.093C131.821 129.311 128.455 124.09 128.227 123.539C127.962 122.242 127.916 120.909 128.093 119.596C128.848 114.2 131.993 108.267 136.814 105.844C138.013 105.245 137.779 104.454 138.008 103.424C138.015 103.364 138.041 103.308 138.084 103.265C138.126 103.222 138.182 103.194 138.242 103.186C138.302 103.177 138.363 103.19 138.415 103.22C138.467 103.25 138.508 103.297 138.531 103.353C139.675 105.103 143.077 105.468 143.077 105.468C154.754 104.293 158.382 110.136 160.644 111.423C161.556 111.928 162.613 112.107 163.641 111.932C163.648 112.265 163.746 112.59 163.925 112.87C164.104 113.151 164.356 113.377 164.655 113.524L164.513 114.069C164.411 114.473 164.448 114.9 164.62 115.279Z" fill="#5285EA"/>
<path d="M157.717 119.639C159.176 119.728 160.626 119.356 161.862 118.576C163.099 117.796 164.059 116.647 164.606 115.292C164.82 114.774 164.986 114.238 165.102 113.69L165.015 113.665C164.89 113.635 164.769 113.588 164.655 113.526C164.357 113.379 164.104 113.153 163.926 112.872C163.747 112.592 163.649 112.267 163.642 111.935C163.633 111.751 163.653 111.567 163.702 111.39L164.407 108.779C164.407 108.779 162.045 110.032 159.829 108.752C157.613 107.471 154.452 101.644 142.262 102.797C142.262 102.797 139.583 102.549 138.447 100.767C138.423 100.712 138.382 100.666 138.33 100.637C138.278 100.608 138.218 100.596 138.158 100.605C138.099 100.613 138.044 100.641 138.003 100.683C137.961 100.726 137.934 100.781 137.926 100.84C137.697 101.87 137.196 102.546 135.999 103.146C131.167 105.571 128.02 111.504 127.278 116.897C127 119.15 127.325 121.435 128.221 123.52C128.45 124.065 131.816 129.292 131.974 129.074C131.974 129.074 133.495 126.894 133.868 126.349L133.958 126.229L133.841 126.122C133.405 125.721 132.998 125.29 132.62 124.833C131.126 123.016 130.189 120.724 132.176 118.8C132.584 118.403 133.079 118.107 133.623 117.938C136.305 117.154 137.043 120.037 137.343 122.432C137.401 122.89 137.409 123.352 137.367 123.811L137.585 122.994C137.858 121.988 138.13 120.983 138.403 119.969C138.858 118.309 139.305 116.655 139.766 114.992C139.839 114.706 140.065 113.066 140.327 112.924C140.327 112.924 143.338 111.305 149.914 115.922C154.662 119.255 155.894 115.807 157.205 117.944C157.511 118.458 157.688 119.039 157.72 119.636C157.726 119.828 157.721 120.02 157.703 120.211C157.708 120.237 157.708 120.262 157.703 120.288C157.665 120.705 157.611 121.122 157.556 121.528C157.011 125.447 155.948 129.466 153.858 132.865C151.323 136.983 145.72 140.575 140.897 137.738C139.395 136.852 138.109 135.593 136.959 134.29" stroke="black" stroke-width="1.2509" stroke-miterlimit="10"/>
<path d="M154.171 128.018C154.472 127.432 154.323 126.755 153.839 126.506C153.354 126.257 152.717 126.531 152.416 127.117C152.115 127.704 152.264 128.381 152.748 128.63C153.233 128.879 153.87 128.605 154.171 128.018Z" fill="black"/>
<path d="M146.568 126.61C146.869 126.023 146.72 125.346 146.236 125.097C145.751 124.848 145.114 125.122 144.813 125.709C144.512 126.295 144.661 126.972 145.146 127.221C145.63 127.47 146.267 127.196 146.568 126.61Z" fill="black"/>
<path d="M147.862 128.99C147.862 128.99 150.186 130.821 150.568 129.347C150.688 128.892 151.999 124.466 151.999 124.466C151.999 124.466 154.386 122.602 157.291 124.689" stroke="black" stroke-width="1.2509" stroke-miterlimit="10"/>
<path d="M149.397 122.771C149.397 122.771 145.603 120.094 142.442 122.64" stroke="black" stroke-width="1.2509" stroke-miterlimit="10"/>
<path d="M130.991 127.834L129.023 134.178L126.775 133.756C125.36 136.116 127.183 143.744 129.595 146.292C136.476 153.585 140.709 145.167 140.709 145.167L141.714 142.48L143.172 138.593" stroke="black" stroke-width="1.2509" stroke-miterlimit="10"/>
<path d="M190.592 108.395C191.105 108.855 191.515 109.418 191.797 110.047C192.079 110.676 192.225 111.357 192.227 112.046V112.826C192.229 113.377 192.347 113.921 192.572 114.424C192.797 114.927 193.124 115.377 193.534 115.746C193.943 116.115 194.425 116.394 194.948 116.565C195.472 116.737 196.026 116.797 196.574 116.742C198.61 116.535 200.098 114.684 200.098 112.627V112.044C200.096 111.36 200.238 110.683 200.513 110.057C200.789 109.431 201.192 108.869 201.698 108.408" stroke="#CCDDE2" stroke-width="1.2509" stroke-linejoin="round"/>
<path d="M190.592 108.395C191.105 108.855 191.515 109.418 191.797 110.047C192.079 110.676 192.225 111.357 192.227 112.046V112.826C192.229 113.377 192.347 113.921 192.572 114.424C192.797 114.927 193.124 115.377 193.534 115.746C193.943 116.115 194.425 116.394 194.948 116.565C195.472 116.737 196.026 116.797 196.574 116.742C198.61 116.535 200.098 114.684 200.098 112.627V112.044C200.096 111.36 200.238 110.683 200.513 110.057C200.789 109.431 201.192 108.869 201.698 108.408" stroke="#CCDDE2" stroke-width="1.2509" stroke-linejoin="round"/>
<path d="M190.591 108.395C190.33 108.167 190.047 107.967 189.746 107.795C187.442 106.472 185.603 104.468 184.482 102.059C183.362 99.6493 183.014 96.9519 183.488 94.337C183.961 91.7221 185.232 89.3178 187.126 87.4538C189.02 85.59 191.445 84.3579 194.067 83.9265C196.689 83.4953 199.38 83.8861 201.771 85.0452C204.163 86.2042 206.137 88.0751 207.423 90.4006C208.708 92.7263 209.243 95.3927 208.953 98.0343C208.663 100.676 207.563 103.163 205.803 105.154C205.776 105.181 205.751 105.21 205.73 105.242C204.8 106.263 203.716 107.132 202.517 107.817C202.221 107.981 201.947 108.181 201.699 108.411" stroke="#CCDDE2" stroke-width="1.2509" stroke-linejoin="round"/>
<path d="M194.783 107.555C193.952 106.046 192.551 104.045 191.565 102.62C190.492 101.108 189.615 99.4662 188.957 97.7335C188.87 97.5465 188.835 97.3389 188.859 97.1339C188.872 97.0323 188.925 96.9396 189.005 96.8756C189.085 96.8118 189.187 96.7813 189.289 96.7905C189.472 96.826 189.562 97.0167 189.657 97.183C190.049 97.9616 190.607 98.6445 191.292 99.1833C191.677 99.4804 192.222 99.7284 192.622 99.4559C192.744 99.3493 192.841 99.2182 192.909 99.0711C192.976 98.9242 193.011 98.7645 193.012 98.6028C193.132 97.4552 192.832 96.3027 192.167 95.3598C191.895 94.9891 191.42 94.6294 191.036 94.872C190.652 95.1145 190.764 95.7141 190.993 96.1174C191.399 96.8649 191.954 97.522 192.623 98.0483C193.292 98.5742 194.062 98.9588 194.884 99.1779C195.288 99.3131 195.723 99.3177 196.13 99.1915C196.355 99.0888 196.552 98.9326 196.704 98.7364C196.855 98.5402 196.956 98.3102 196.999 98.066C197.08 97.5754 197.038 97.0726 196.876 96.6025C196.653 95.8694 196.22 95.12 195.492 94.8747C195.264 94.7861 195.011 94.7861 194.783 94.8747C194.632 94.9556 194.506 95.0777 194.421 95.2265C194.336 95.3753 194.294 95.5454 194.301 95.7168C194.319 96.0599 194.424 96.3929 194.606 96.6843C195.028 97.4212 195.623 98.0447 196.339 98.5015C197.056 98.9579 197.872 99.234 198.719 99.306C199.284 99.3864 199.859 99.249 200.327 98.9217C200.522 98.7408 200.679 98.5227 200.789 98.2802C200.899 98.0379 200.959 97.776 200.967 97.51C201.029 96.7123 200.803 95.9187 200.332 95.2726C200.237 95.1445 200.092 95 199.937 95.0518C199.781 95.1036 199.738 95.278 199.719 95.4334C199.648 96.0438 199.699 96.6622 199.869 97.2527C200.039 97.843 200.325 98.3938 200.711 98.8726C201.136 99.3932 201.782 99.8456 202.436 99.6902C202.683 99.6147 202.905 99.4733 203.079 99.2812C203.252 99.0893 203.37 98.8538 203.42 98.6001C203.514 98.0913 203.463 97.5662 203.273 97.0849C203.038 97.2288 202.838 97.4217 202.685 97.6501C202.532 97.8787 202.43 98.1376 202.387 98.4094C202.267 98.9544 202.275 99.4995 202.182 100.045C201.67 103.102 198.302 104.468 197.648 107.403" stroke="#CCDDE2" stroke-width="1.2509" stroke-linejoin="round"/>
<path d="M196.146 79.1476L196.018 71.4023" stroke="#CCDDE2" stroke-width="1.2509" stroke-linejoin="round"/>
<path d="M181.373 86.3527L176.012 80.7632" stroke="#CCDDE2" stroke-width="1.2509" stroke-linejoin="round"/>
<path d="M210.971 86.7016L216.451 81.2266" stroke="#CCDDE2" stroke-width="1.2509" stroke-linejoin="round"/>
<path d="M213.898 159.875C215.448 159.875 216.705 158.619 216.705 157.068C216.705 155.518 215.448 154.261 213.898 154.261C212.348 154.261 211.091 155.518 211.091 157.068C211.091 158.619 212.348 159.875 213.898 159.875Z" fill="#5285EA"/>
</svg>
